<?xml version="1.0" standalone="yes"?>
<svg xmlns="http://www.w3.org/2000/svg" width="1004" height="166">
<path style="fill:#1e2423; stroke:none;" d="M0 0L0 166L1004 166L1004 0L0 0z"/>
<path style="fill:#2bfda7; stroke:none;" d="M91 109C83.0345 109 59.1877 112.968 53.7423 106.566C50.6204 102.896 52 95.4849 52 91L85 90L85 76L52 75C52 70.5558 50.7842 63.9192 53.6034 60.1481C58.9632 52.9786 82.7235 57 91 57C91 53.2867 92.4316 45.782 89.9722 42.7423C87.4706 39.6504 80.4768 41.1129 77 40.9606C65.0582 40.4377 47.4862 36.0559 38.2245 46.1049C33.1386 51.6233 34 59.0614 34 66C34 79.9965 33.832 94.0046 34.0039 108C34.2658 129.329 59.5142 127.458 75 125.424C78.8272 124.922 87.3012 126.559 89.9722 123.258C92.4316 120.218 91 112.713 91 109M97 40L114.811 71L120.852 83L114.05 96L97 125C102.441 125 110.745 126.57 115.79 124.397C122.205 121.633 129.114 105.411 131 99L133 99C135.897 105.713 143.05 121.568 150.093 124.397C155.318 126.495 163.419 125 169 125L151.319 96L144.52 83.4244L151.203 71L169 40C163.743 40 155.2 38.3509 150.39 40.6034C143.655 43.7569 136.875 61.3279 134 68L115.79 41.0278L97 40M177 40L177 125L195 125L195 98C205.128 99.2799 217.522 102.342 226.999 96.9105C241.641 88.5196 242.739 56.3588 230.699 45.3935C219.051 34.7845 191.583 40 177 40M248 40L248 99C248 107.089 247.597 117.068 255.043 122.297C265.126 129.379 288.075 125 300 125L300 109C292.402 109 275.41 112.169 269.228 107.397C264.275 103.573 266 94.4678 266 89L266 40L248 40M309 40L309 125L327 125L327 94L338.61 95.0278L353.637 123.972L372 125L356 91C372.586 85.6891 374.107 54.5604 360.957 44.6381C348.547 35.2742 323.703 40 309 40z"/>
<path style="fill:#1e2423; stroke:none;" d="M195 56L195 84C201.201 84 210.416 85.6273 215.867 82.0617C222.49 77.7287 221.905 60.9418 214.945 57.179C209.702 54.3443 200.81 56 195 56M327 56L327 80C332.869 80 341.776 81.6283 346.867 78.142C353.069 73.8941 352.688 60.8129 345.956 57.3179C340.72 54.5995 332.731 56 327 56z"/>
</svg>
