<?xml version="1.0" standalone="yes"?>
<svg xmlns="http://www.w3.org/2000/svg" width="1004" height="166">
<path style="fill:#1e2423; stroke:none;" d="M0 0L0 166L1004 166L1004 0L0 0z"/>
<path style="fill:#cc34f7; stroke:none;" d="M91 109C83.0345 109 59.1877 112.968 53.7423 106.566C50.6204 102.896 52 95.4849 52 91L85 90L85 76L52 75C52 70.5558 50.7842 63.9192 53.6034 60.1481C58.9632 52.9786 82.7235 57 91 57C91 53.2867 92.4316 45.782 89.9722 42.7423C87.4706 39.6504 80.4768 41.1129 77 40.9606C65.0582 40.4377 47.4862 36.0559 38.2245 46.1049C33.1386 51.6233 34 59.0614 34 66C34 79.9965 33.832 94.0046 34.0039 108C34.2658 129.329 59.5142 127.458 75 125.424C78.8272 124.922 87.3012 126.559 89.9722 123.258C92.4316 120.218 91 112.713 91 109M97 40L114.811 71L120.852 83L114.05 96L97 125C102.323 125 111.991 126.866 116.621 123.972C126.093 118.052 126.164 103.496 127.285 94C129.164 78.0882 131.878 65.0164 123.192 51C121.079 47.5904 118.834 42.2073 114.896 40.6034C109.949 38.5891 102.288 40 97 40z"/>
<path style="fill:#9974de; stroke:none;" d="M134 68L131 63L130 63L126 108L127 108L131 99L133 99C135.897 105.713 143.05 121.568 150.093 124.397C155.318 126.495 163.419 125 169 125L151.319 96L144.52 83.4244L151.203 71L169 40C163.743 40 155.2 38.3509 150.39 40.6034C143.655 43.7569 136.875 61.3279 134 68M177 40L177 125L195 125L195 98L204 99L205 84L195 84L195 56L208 56L209 40L177 40z"/>
<path style="fill:#6baec7; stroke:none;" d="M209 40L208 56C226.352 57.0047 222.954 83.6274 205 84L204 99C212.236 100.041 221.913 101.055 228.985 95.581C241.429 85.9485 242.352 56.0066 230.699 45.3935C224.927 40.1361 216.326 40.0008 209 40M248 40L248 98C248 105.979 247.305 115.908 254.105 121.581C260.149 126.624 269.69 125 277 125L278 109C273.408 108.984 268.731 108.962 266.742 103.981C264.502 98.3699 266 89.9636 266 84L266 40L248 40z"/>
<path style="fill:#3beaaf; stroke:none;" d="M309 40L309 125L327 125L327 94L338.61 95.0278L353.637 123.972L372 125L356 91C372.586 85.6891 374.107 54.5604 360.957 44.6381C348.547 35.2742 323.703 40 309 40z"/>
<path style="fill:#cc34f7; stroke:none;" d="M396 42C391.608 49.5535 386.144 68.9499 398 73C394.266 59.9395 395.696 54.9657 398 42L396 42M465 42C467.304 54.9657 468.734 59.9395 465 73C476.782 68.9752 471.386 49.5501 467 42L465 42M400 46L400 67C403.521 67 409.667 68.1343 412.397 65.3966C414.657 63.1297 413.594 59.7667 413.374 57C412.568 46.8392 410.143 46 400 46M430 67L430 65C423.91 64.9953 419.78 64.924 419 58L429 58L429 56L419 56C419.524 49.1099 423.78 48.0563 430 48L430 46C426.758 46 421.316 45.0304 418.603 47.179C415.298 49.7969 415.83 64.5152 419.318 66.8202C422.34 68.8172 426.708 67.4157 430 67M431 46L431 48L438 48L438 67L441 67L441 48L447 48L447 46L431 46M453 46L446 67L455.001 61.2963L464 67C462.309 60.8042 460.126 47.2336 453 46z"/>
<path style="fill:#1e2423; stroke:none;" d="M403 48L403 55C411.839 54.8947 411.647 48.4751 403 48M454 51L452 59L458 59L454 51M195 56L195 84C201.201 84 210.416 85.6273 215.867 82.0617C222.49 77.7287 221.905 60.9418 214.945 57.179C209.702 54.3443 200.81 56 195 56M327 56L327 80C332.869 80 341.776 81.6283 346.867 78.142C353.069 73.8941 352.688 60.8129 345.956 57.3179C340.72 54.5995 332.731 56 327 56M403 58L403 65C412.524 64.8872 412.582 58.1132 403 58z"/>
<path style="fill:#3beaaf; stroke:none;" d="M278 109L277 125L300 125L300 109L278 109z"/>
</svg>
