<?xml version="1.0" standalone="yes"?>
<svg xmlns="http://www.w3.org/2000/svg" width="1004" height="166">
<path style="fill:#010101; stroke:none;" d="M0 0L0 166L1004 166L1004 0L0 0z"/>
<path style="fill:#fdfdfe; stroke:none;" d="M508 44L508 115L547 115L547 107L518 107L518 82L542 82L542 75L518 75L518 52L547 52L547 44L508 44M555 44L570.424 69L575.658 80L555 115C572.643 115 575.012 98.0637 585 86C589.305 99.599 598.205 115 613 115C608.887 106.201 602.923 98.238 597.808 90C595.893 86.9164 592.206 82.855 592.492 79C593.338 67.5962 608.121 54.3141 613 44C597.612 44 590.722 58.7212 585 72L583 72C577.81 58.2863 570.23 44 555 44z"/>
<path style="fill:#3167ab; stroke:none;" d="M601 44L602 45L601 44z"/>
<path style="fill:#fdfdfe; stroke:none;" d="M618 44L618 115L627 115L627 87C636.551 87 650.398 89.5383 658.956 84.5826C668.147 79.2605 668.076 53.7576 659.942 47.5131C650.253 40.074 629.545 44 618 44z"/>
<path style="fill:#3167ab; stroke:none;" d="M652 44L653 45L652 44z"/>
<path style="fill:#fdfdfe; stroke:none;" d="M673 44L673 115L712 115L712 107L682 107L682 44L673 44z"/>
<path style="fill:#29514e; stroke:none;" d="M682 44L682 107L683 107L683 64L682 44z"/>
<path style="fill:#fdfdfe; stroke:none;" d="M720 44L720 115L729 115L729 83C735.802 83 750.545 80.2307 755.258 86.2785C763.967 97.4552 747.581 114.986 769 115C764.782 105.045 772.562 82.2549 758 80C768.211 74.875 772.596 52.7078 760.982 46.1397C750.726 40.3397 731.488 44 720 44z"/>
<path style="fill:#3167ab; stroke:none;" d="M756 44L757 45L756 44M656 45L657 46L656 45z"/>
<path style="fill:#29514e; stroke:none;" d="M556 46L557 47L556 46M271 47L271 48L314 48C302.774 43.2895 283.219 47 271 47M350 47L350 48L399 48C386.348 42.691 363.788 47 350 47z"/>
<path style="fill:#3167ab; stroke:none;" d="M568 47L569 48L568 47z"/>
<path style="fill:#29514e; stroke:none;" d="M599 47L600 48L599 47M660 47L661 48L660 47M763 47L764 48L763 47M265 48L266 49L265 48z"/>
<path style="fill:#fdfdfe; stroke:none;" d="M316 48C301.23 48 277.672 43.5083 264 49.2284C250.653 54.8126 247.842 74.1342 259.174 83.2106C268.215 90.4519 283.21 87.982 294 88C298.555 88.0076 305.515 87.9528 306.258 94.0147C306.825 98.6465 301.914 101.453 298 101.891C287.984 103.012 276.814 99.9704 267 102.314C263.836 103.07 253.836 109.12 256.176 113.397C258.18 117.06 272.319 115 276 115C291.689 115 319.819 118.427 319.819 95C319.819 71.5879 293.875 75.0829 278 74.9992C273.012 74.9729 262.284 72.5767 266.047 65.0586C268.82 59.5181 276.944 61 282 61C294.666 61 311.586 63.7246 316 48z"/>
<path style="fill:#29514e; stroke:none;" d="M347 48L348 49L347 48z"/>
<path style="fill:#3167ab; stroke:none;" d="M348.001 48.6528C343.596 50.0412 340.611 53.5718 339.533 58C336.719 69.5568 338.999 84.1228 339 96C339 101.512 338.732 107.227 342.638 111.66C346.613 116.171 352.498 115.998 358 116C370.969 116.005 388.598 119.105 400.999 115.196C405.356 113.823 408.575 110.478 409.606 106C412.341 94.1145 410.001 79.1925 410 67C410 61.6774 410.332 56.4055 406.606 52.1088C402.684 47.5865 397.466 48.0004 392 48C378.856 47.9992 360.549 44.6978 348.001 48.6528M431 48L430 50L431 48z"/>
<path style="fill:#fdfdfe; stroke:none;" d="M443 104L443 81L443 66C443 61.5956 444.377 54.3435 442.397 50.3179C440.454 46.369 432.224 47.4363 430.603 51.1481C428.829 55.2112 430 61.6417 430 66L430 99C430 102.632 428.4 111.435 431.603 113.972C434.543 116.301 441.469 115 445 115C456.595 115 469.548 116.633 481 114.852C484.382 114.326 490.737 110.499 490.079 106.318C489.519 102.765 481.424 104 479 104L443 104z"/>
<path style="fill:#3167ab; stroke:none;" d="M661 48L662 49L661 48z"/>
<path style="fill:#29514e; stroke:none;" d="M764 48L765 49L764 48M345 49L346 50L345 49z"/>
<path style="fill:#2df4ad; stroke:none;" d="M349 49L350 50L349 49z"/>
<path style="fill:#fdfdfe; stroke:none;" d="M350.001 49.5332C346.053 50.4973 342.729 53.0126 341.514 57.0039C338.107 68.1928 341 84.31 341 96C341 100.611 340.339 105.826 343.148 109.811C346.333 114.329 351.902 114.935 357 114.996C370.091 115.153 387.419 117.854 399.999 114.057C404.474 112.707 407.363 109.535 408.467 105C411.208 93.7395 409.004 79.5712 409 68C408.998 62.8486 409.213 57.2861 405.581 53.1443C401.871 48.9131 396.17 49.0083 391 49C378.229 48.9795 362.42 46.4997 350.001 49.5332z"/>
<path style="fill:#2df4ad; stroke:none;" d="M399 49L400 50L399 49z"/>
<path style="fill:#3167ab; stroke:none;" d="M558 49L559 50L558 49M261 50L262 51L261 50z"/>
<path style="fill:#2df4ad; stroke:none;" d="M346 50L347 51L346 50z"/>
<path style="fill:#29514e; stroke:none;" d="M405 50L406 51L405 50z"/>
<path style="fill:#3167ab; stroke:none;" d="M315 51L316 52L315 51z"/>
<path style="fill:#29514e; stroke:none;" d="M406 51L407 52L406 51M608 51L609 52L608 51M258 52L259 53L258 52M314 52L315 53L314 52M596 52L597 53L596 52z"/>
<path style="fill:#3167ab; stroke:none;" d="M627 52L627 79L628 79L627 52z"/>
<path style="fill:#010101; stroke:none;" d="M628 52L628 79C634.582 79 646.187 81.2063 651.772 77.142C657.183 73.2037 656.901 56.8013 650.891 53.5725C644.677 50.234 634.839 52 628 52z"/>
<path style="fill:#29514e; stroke:none;" d="M648 52L649 53L648 52z"/>
<path style="fill:#3167ab; stroke:none;" d="M729 52C729 56.8603 726.532 71.7475 730.603 74.9722C734.308 77.9065 744.443 76 749 76L749 75L730 75L729 52z"/>
<path style="fill:#010101; stroke:none;" d="M730 52L730 75C736.388 75 748.252 77.2878 753.852 73.9722C758.862 71.0059 758.698 56.1909 753.772 53.179C748.155 49.7449 736.426 52 730 52z"/>
<path style="fill:#29514e; stroke:none;" d="M257 53L258 54L257 53M313 53L314 54L313 53z"/>
<path style="fill:#3167ab; stroke:none;" d="M651 53L652 54L651 53z"/>
<path style="fill:#2df4ad; stroke:none;" d="M342 54L343 55L342 54z"/>
<path style="fill:#29514e; stroke:none;" d="M408 54L409 55L408 54M561 54L562 55L561 54z"/>
<path style="fill:#3167ab; stroke:none;" d="M606 54L607 55L606 54M664 54L665 55L664 54z"/>
<path style="fill:#2df4ad; stroke:none;" d="M407 55L408 56L407 55z"/>
<path style="fill:#29514e; stroke:none;" d="M573 55L574 56L573 55M756 55L757 56L756 55M409 56L410 57L409 56M254 57L255 58L254 57M339 57L340 58L339 57z"/>
<path style="fill:#3167ab; stroke:none;" d="M563 57L564 58L563 57M593 57L594 58L593 57z"/>
<path style="fill:#2df4ad; stroke:none;" d="M408 58L409 59L408 58z"/>
<path style="fill:#29514e; stroke:none;" d="M253 59L254 60L253 59z"/>
<path style="fill:#3167ab; stroke:none;" d="M360.004 59.8187C349.076 61.2042 348.719 91.6717 353.742 98.8912C358.78 106.133 381.068 104.054 388.996 102.786C400.584 100.933 397.001 83.4479 397 75C397 71.2339 397.681 66.4345 395.258 63.2284C390.58 57.0387 367.252 58.8997 360.004 59.8187z"/>
<path style="fill:#2df4ad; stroke:none;" d="M361 59L361 60L390 60L361 59z"/>
<path style="fill:#29514e; stroke:none;" d="M603 59L604 60L603 59M305 60L306 61L305 60z"/>
<path style="fill:#2df4ad; stroke:none;" d="M340 60L341 61L340 60M392 60L393 61L392 60z"/>
<path style="fill:#3167ab; stroke:none;" d="M576 60L577 61L576 60z"/>
<path style="fill:#29514e; stroke:none;" d="M268 61L269 62L268 61M358 61L359 62L358 61z"/>
<path style="fill:#010101; stroke:none;" d="M359.044 61.6528C350.611 64.4731 353.997 81.9781 354 89C354.001 92.0956 353.451 96.127 355.603 98.6821C359.648 103.482 385.268 102.688 390.941 100.397C398.264 97.4394 395.013 78.4884 395 72C394.994 69.1919 395.384 65.7204 393.397 63.4336C388.951 58.3174 365.168 59.6045 359.044 61.6528z"/>
<path style="fill:#29514e; stroke:none;" d="M391 61L392 62L391 61z"/>
<path style="fill:#3167ab; stroke:none;" d="M252 62L253 63L252 62z"/>
<path style="fill:#29514e; stroke:none;" d="M356 62L357 63L356 62M566 62L567 63L566 62z"/>
<path style="fill:#3167ab; stroke:none;" d="M601 62L602 63L601 62z"/>
<path style="fill:#2df4ad; stroke:none;" d="M353 63L354 64L353 63z"/>
<path style="fill:#29514e; stroke:none;" d="M27 64L27 65L167 65C156.02 60.3926 136.944 64 125 64L27 64z"/>
<path style="fill:#3167ab; stroke:none;" d="M265 64L266 65L265 64z"/>
<path style="fill:#29514e; stroke:none;" d="M354 64L355 65L354 64z"/>
<path style="fill:#2df4ad; stroke:none;" d="M26.662 66.0278C23.7688 68.6858 29.36 73.3233 31.0046 75C37.3713 81.491 46.9707 95.4184 56 97.6821C66.1634 100.23 79.5218 98 90 98L163 98L188 98C190.515 97.9998 195.305 98.84 197.338 96.9722C200.231 94.3142 194.64 89.6767 192.995 88C186.629 81.509 177.029 67.5816 168 65.3179C157.837 62.7699 144.478 65 134 65L61 65L36 65C33.4848 65.0002 28.6951 64.16 26.662 66.0278M352 65L353 66L352 65z"/>
<path style="fill:#3167ab; stroke:none;" d="M568 65L569 66L568 65M579 65L580 66L579 65z"/>
<path style="fill:#29514e; stroke:none;" d="M588 65L589 66L588 65M395 66L395 97L396 97L395 66M598 67L599 68L598 67M265 70L266 71L265 70M585 70L586 71L585 70z"/>
<path style="fill:#3167ab; stroke:none;" d="M596 70L597 71L596 70z"/>
<path style="fill:#29514e; stroke:none;" d="M766 71L767 72L766 71z"/>
<path style="fill:#3167ab; stroke:none;" d="M252 72L253 73L252 72M573 73L574 74L573 73M755 73L756 74L755 73M270 74L271 75L270 74M518 74L518 75L542 75L518 74M654 74L655 75L654 74M765 74L766 75L765 74M253 75L254 76L253 75M305 75L306 76L305 75M311 78L312 79L311 78M591 78L592 79L591 78z"/>
<path style="fill:#29514e; stroke:none;" d="M649 78L650 79L649 78z"/>
<path style="fill:#3167ab; stroke:none;" d="M761 78L762 79L761 78M758 79L759 80L758 79z"/>
<path style="fill:#29514e; stroke:none;" d="M759 79L760 80L759 79M256 80L257 81L256 80z"/>
<path style="fill:#3167ab; stroke:none;" d="M576 80L577 81L576 80M763 81L764 82L763 81z"/>
<path style="fill:#29514e; stroke:none;" d="M764 82L765 83L764 82M259 83L260 84L259 83M574 83L575 84L574 83z"/>
<path style="fill:#3167ab; stroke:none;" d="M593 83L594 84L593 83M729 83L729 115L730 115L729 83z"/>
<path style="fill:#29514e; stroke:none;" d="M750 83L751 84L750 83z"/>
<path style="fill:#3167ab; stroke:none;" d="M751 83L752 84L751 83M659 84L660 85L659 84z"/>
<path style="fill:#29514e; stroke:none;" d="M754 84L755 85L754 84z"/>
<path style="fill:#3167ab; stroke:none;" d="M317 85L318 86L317 85z"/>
<path style="fill:#29514e; stroke:none;" d="M657 85L658 86L657 85z"/>
<path style="fill:#3167ab; stroke:none;" d="M584 86L585 87L584 86z"/>
<path style="fill:#29514e; stroke:none;" d="M595 86L596 87L595 86M654 86L655 87L654 86z"/>
<path style="fill:#3167ab; stroke:none;" d="M269.667 87.3333L270.333 87.6667L269.667 87.3333z"/>
<path style="fill:#29514e; stroke:none;" d="M318 87L319 88L318 87z"/>
<path style="fill:#3167ab; stroke:none;" d="M627 87L627 115L628 115L627 87M766 87L767 88L766 87M571 88L572 89L571 88z"/>
<path style="fill:#29514e; stroke:none;" d="M582 88L583 89L582 88M304 89L305 90L304 89z"/>
<path style="fill:#3167ab; stroke:none;" d="M319 91L320 92L319 91z"/>
<path style="fill:#29514e; stroke:none;" d="M569 91L570 92L569 91z"/>
<path style="fill:#3167ab; stroke:none;" d="M587 91L588 92L587 91M598 91L599 92L598 91M306 92L307 93L306 92z"/>
<path style="fill:#29514e; stroke:none;" d="M579 93L580 94L579 93M600 94L601 95L600 94M306 96L307 97L306 96z"/>
<path style="fill:#3167ab; stroke:none;" d="M566 96L567 97L566 96M577 96L578 97L577 96z"/>
<path style="fill:#29514e; stroke:none;" d="M590 96L591 97L590 96z"/>
<path style="fill:#2df4ad; stroke:none;" d="M396 97L397 98L396 97z"/>
<path style="fill:#29514e; stroke:none;" d="M57 98L57 99L197 99C186.02 94.3926 166.944 98 155 98L57 98M319 98L320 99L319 98M394 98L395 99L394 98M393 99L394 100L393 99z"/>
<path style="fill:#2df4ad; stroke:none;" d="M395 99L396 100L395 99z"/>
<path style="fill:#29514e; stroke:none;" d="M564 99L565 100L564 99z"/>
<path style="fill:#2df4ad; stroke:none;" d="M354 100L355 101L354 100z"/>
<path style="fill:#29514e; stroke:none;" d="M392 100L393 101L392 100z"/>
<path style="fill:#3167ab; stroke:none;" d="M301 101L302 102L301 101z"/>
<path style="fill:#29514e; stroke:none;" d="M359 101L359 102L390 102L359 101z"/>
<path style="fill:#2df4ad; stroke:none;" d="M393 101L394 102L393 101z"/>
<path style="fill:#3167ab; stroke:none;" d="M574 101L575 102L574 101z"/>
<path style="fill:#2df4ad; stroke:none;" d="M357 102L358 103L357 102M391 102L392 103L391 102z"/>
<path style="fill:#29514e; stroke:none;" d="M605 102L606 103L605 102M443 103L444 104L443 103z"/>
<path style="fill:#3167ab; stroke:none;" d="M595 104L596 105L595 104M261 105L262 106L261 105z"/>
<path style="fill:#2df4ad; stroke:none;" d="M408 105L409 106L408 105z"/>
<path style="fill:#29514e; stroke:none;" d="M339 106L340 107L339 106M571 106L572 107L571 106z"/>
<path style="fill:#2df4ad; stroke:none;" d="M341 107L342 108L341 107z"/>
<path style="fill:#29514e; stroke:none;" d="M409 107L410 108L409 107M559 107L560 108L559 107M340 108L341 109L340 108M408 109L409 110L408 109M598 109L599 110L598 109M341 110L342 111L341 110z"/>
<path style="fill:#2df4ad; stroke:none;" d="M343 110L344 111L343 110z"/>
<path style="fill:#3167ab; stroke:none;" d="M610 110L611 111L610 110M254 112L255 113L254 112z"/>
<path style="fill:#2df4ad; stroke:none;" d="M345 112L346 113L345 112z"/>
<path style="fill:#29514e; stroke:none;" d="M486 112L487 113L486 112M344 113L345 114L344 113z"/>
<path style="fill:#3167ab; stroke:none;" d="M485 113L486 114L485 113z"/>
<path style="fill:#29514e; stroke:none;" d="M255 114L256 115L255 114z"/>
<path style="fill:#3167ab; stroke:none;" d="M302 114L303 115L302 114z"/>
<path style="fill:#2df4ad; stroke:none;" d="M350 114L351 115L350 114M398 114L399 115L398 114z"/>
<path style="fill:#29514e; stroke:none;" d="M403 114L404 115L403 114z"/>
<path style="fill:#3167ab; stroke:none;" d="M484 114L485 115L484 114M566 114L567 115L566 114z"/>
<path style="fill:#29514e; stroke:none;" d="M601 114L602 115L601 114z"/>
<path style="fill:#3167ab; stroke:none;" d="M759 114L760 115L759 114M769 114L770 115L769 114z"/>
<path style="fill:#29514e; stroke:none;" d="M348 115L349 116L348 115M400 115L401 116L400 115M432 115L432 116L483 116C469.873 110.492 446.311 115 432 115z"/>
</svg>
